<?xml version="1.0" encoding="utf-8" standalone="no"?>
<!DOCTYPE svg PUBLIC "-//W3C//DTD SVG 1.1//EN"
  "http://www.w3.org/Graphics/SVG/1.1/DTD/svg11.dtd">
<svg xmlns:xlink="http://www.w3.org/1999/xlink" width="640.218437pt" height="244.478437pt" viewBox="0 0 640.218437 244.478437" xmlns="http://www.w3.org/2000/svg" version="1.1">
 <metadata>
  <rdf:RDF xmlns:dc="http://purl.org/dc/elements/1.1/" xmlns:cc="http://creativecommons.org/ns#" xmlns:rdf="http://www.w3.org/1999/02/22-rdf-syntax-ns#">
   <cc:Work>
    <dc:type rdf:resource="http://purl.org/dc/dcmitype/StillImage"/>
    <dc:date>2026-09-17T02:20:07.969029</dc:date>
    <dc:format>image/svg+xml</dc:format>
    <dc:creator>
     <cc:Agent>
      <dc:title>Matplotlib v3.11.1, https://matplotlib.org/</dc:title>
     </cc:Agent>
    </dc:creator>
   </cc:Work>
  </rdf:RDF>
 </metadata>
 <defs>
  <style type="text/css">*{stroke-linejoin: round; stroke-linecap: butt}</style>
 </defs>
 <g id="figure_1">
  <g id="patch_1">
   <path d="M 0 244.478437 
L 640.218437 244.478437 
L 640.218437 0 
L 0 0 
z
" style="fill: #ffffff"/>
  </g>
  <g id="axes_1">
   <g id="patch_2">
    <path d="M 51.700781 206.277656 
L 312.258437 206.277656 
L 312.258437 7.2 
L 51.700781 7.2 
z
" style="fill: #ffffff"/>
   </g>
   <g id="matplotlib.axis_1">
    <g id="xtick_1">
     <g id="line2d_1">
      <defs>
       <path id="m6596229947" d="M 0 0 
L 0 3.5 
" style="stroke: #000000; stroke-width: 0.8"/>
      </defs>
      <g>
       <use xlink:href="#m6596229947" x="63.544311" y="206.277656" style="stroke: #000000; stroke-width: 0.8"/>
      </g>
     </g>
     <g id="text_1">
      <!-- 0 -->
      <g transform="translate(60.363061 220.875312) scale(0.1 -0.1)">
       <defs>
        <path id="DejaVuSans-13" d="M 2034 4250 
Q 1547 4250 1301 3770 
Q 1056 3291 1056 2328 
Q 1056 1369 1301 889 
Q 1547 409 2034 409 
Q 2525 409 2770 889 
Q 3016 1369 3016 2328 
Q 3016 3291 2770 3770 
Q 2525 4250 2034 4250 
z
M 2034 4750 
Q 2819 4750 3233 4129 
Q 3647 3509 3647 2328 
Q 3647 1150 3233 529 
Q 2819 -91 2034 -91 
Q 1250 -91 836 529 
Q 422 1150 422 2328 
Q 422 3509 836 4129 
Q 1250 4750 2034 4750 
z
" transform="scale(0.015625)"/>
       </defs>
       <use xlink:href="#DejaVuSans-13"/>
      </g>
     </g>
    </g>
    <g id="xtick_2">
     <g id="line2d_2">
      <g>
       <use xlink:href="#m6596229947" x="123.511551" y="206.277656" style="stroke: #000000; stroke-width: 0.8"/>
      </g>
     </g>
     <g id="text_2">
      <!-- 20 -->
      <g transform="translate(117.149051 220.875312) scale(0.1 -0.1)">
       <defs>
        <path id="DejaVuSans-15" d="M 1228 531 
L 3431 531 
L 3431 0 
L 469 0 
L 469 531 
Q 828 903 1448 1529 
Q 2069 2156 2228 2338 
Q 2531 2678 2651 2914 
Q 2772 3150 2772 3378 
Q 2772 3750 2511 3984 
Q 2250 4219 1831 4219 
Q 1534 4219 1204 4116 
Q 875 4013 500 3803 
L 500 4441 
Q 881 4594 1212 4672 
Q 1544 4750 1819 4750 
Q 2544 4750 2975 4387 
Q 3406 4025 3406 3419 
Q 3406 3131 3298 2873 
Q 3191 2616 2906 2266 
Q 2828 2175 2409 1742 
Q 1991 1309 1228 531 
z
" transform="scale(0.015625)"/>
       </defs>
       <use xlink:href="#DejaVuSans-15"/>
       <use xlink:href="#DejaVuSans-13" transform="translate(63.625 0)"/>
      </g>
     </g>
    </g>
    <g id="xtick_3">
     <g id="line2d_3">
      <g>
       <use xlink:href="#m6596229947" x="183.47879" y="206.277656" style="stroke: #000000; stroke-width: 0.8"/>
      </g>
     </g>
     <g id="text_3">
      <!-- 40 -->
      <g transform="translate(177.11629 220.875312) scale(0.1 -0.1)">
       <defs>
        <path id="DejaVuSans-17" d="M 2419 4116 
L 825 1625 
L 2419 1625 
L 2419 4116 
z
M 2253 4666 
L 3047 4666 
L 3047 1625 
L 3713 1625 
L 3713 1100 
L 3047 1100 
L 3047 0 
L 2419 0 
L 2419 1100 
L 313 1100 
L 313 1709 
L 2253 4666 
z
" transform="scale(0.015625)"/>
       </defs>
       <use xlink:href="#DejaVuSans-17"/>
       <use xlink:href="#DejaVuSans-13" transform="translate(63.625 0)"/>
      </g>
     </g>
    </g>
    <g id="xtick_4">
     <g id="line2d_4">
      <g>
       <use xlink:href="#m6596229947" x="243.44603" y="206.277656" style="stroke: #000000; stroke-width: 0.8"/>
      </g>
     </g>
     <g id="text_4">
      <!-- 60 -->
      <g transform="translate(237.08353 220.875312) scale(0.1 -0.1)">
       <defs>
        <path id="DejaVuSans-19" d="M 2113 2584 
Q 1688 2584 1439 2293 
Q 1191 2003 1191 1497 
Q 1191 994 1439 701 
Q 1688 409 2113 409 
Q 2538 409 2786 701 
Q 3034 994 3034 1497 
Q 3034 2003 2786 2293 
Q 2538 2584 2113 2584 
z
M 3366 4563 
L 3366 3988 
Q 3128 4100 2886 4159 
Q 2644 4219 2406 4219 
Q 1781 4219 1451 3797 
Q 1122 3375 1075 2522 
Q 1259 2794 1537 2939 
Q 1816 3084 2150 3084 
Q 2853 3084 3261 2657 
Q 3669 2231 3669 1497 
Q 3669 778 3244 343 
Q 2819 -91 2113 -91 
Q 1303 -91 875 529 
Q 447 1150 447 2328 
Q 447 3434 972 4092 
Q 1497 4750 2381 4750 
Q 2619 4750 2861 4703 
Q 3103 4656 3366 4563 
z
" transform="scale(0.015625)"/>
       </defs>
       <use xlink:href="#DejaVuSans-19"/>
       <use xlink:href="#DejaVuSans-13" transform="translate(63.625 0)"/>
      </g>
     </g>
    </g>
    <g id="xtick_5">
     <g id="line2d_5">
      <g>
       <use xlink:href="#m6596229947" x="303.41327" y="206.277656" style="stroke: #000000; stroke-width: 0.8"/>
      </g>
     </g>
     <g id="text_5">
      <!-- 80 -->
      <g transform="translate(297.05077 220.875312) scale(0.1 -0.1)">
       <defs>
        <path id="DejaVuSans-1b" d="M 2034 2216 
Q 1584 2216 1326 1975 
Q 1069 1734 1069 1313 
Q 1069 891 1326 650 
Q 1584 409 2034 409 
Q 2484 409 2743 651 
Q 3003 894 3003 1313 
Q 3003 1734 2745 1975 
Q 2488 2216 2034 2216 
z
M 1403 2484 
Q 997 2584 770 2862 
Q 544 3141 544 3541 
Q 544 4100 942 4425 
Q 1341 4750 2034 4750 
Q 2731 4750 3128 4425 
Q 3525 4100 3525 3541 
Q 3525 3141 3298 2862 
Q 3072 2584 2669 2484 
Q 3125 2378 3379 2068 
Q 3634 1759 3634 1313 
Q 3634 634 3220 271 
Q 2806 -91 2034 -91 
Q 1263 -91 848 271 
Q 434 634 434 1313 
Q 434 1759 690 2068 
Q 947 2378 1403 2484 
z
M 1172 3481 
Q 1172 3119 1398 2916 
Q 1625 2713 2034 2713 
Q 2441 2713 2670 2916 
Q 2900 3119 2900 3481 
Q 2900 3844 2670 4047 
Q 2441 4250 2034 4250 
Q 1625 4250 1398 4047 
Q 1172 3844 1172 3481 
z
" transform="scale(0.015625)"/>
       </defs>
       <use xlink:href="#DejaVuSans-1b"/>
       <use xlink:href="#DejaVuSans-13" transform="translate(63.625 0)"/>
      </g>
     </g>
    </g>
    <g id="text_6">
     <!-- Time -->
     <g transform="translate(169.743672 234.876094) scale(0.1 -0.1)">
      <defs>
       <path id="DejaVuSans-37" d="M -19 4666 
L 3928 4666 
L 3928 4134 
L 2272 4134 
L 2272 0 
L 1638 0 
L 1638 4134 
L -19 4134 
L -19 4666 
z
" transform="scale(0.015625)"/>
       <path id="DejaVuSans-4c" d="M 603 3500 
L 1178 3500 
L 1178 0 
L 603 0 
L 603 3500 
z
M 603 4863 
L 1178 4863 
L 1178 4134 
L 603 4134 
L 603 4863 
z
" transform="scale(0.015625)"/>
       <path id="DejaVuSans-50" d="M 3328 2828 
Q 3544 3216 3844 3400 
Q 4144 3584 4550 3584 
Q 5097 3584 5394 3201 
Q 5691 2819 5691 2113 
L 5691 0 
L 5113 0 
L 5113 2094 
Q 5113 2597 4934 2840 
Q 4756 3084 4391 3084 
Q 3944 3084 3684 2787 
Q 3425 2491 3425 1978 
L 3425 0 
L 2847 0 
L 2847 2094 
Q 2847 2600 2669 2842 
Q 2491 3084 2119 3084 
Q 1678 3084 1418 2786 
Q 1159 2488 1159 1978 
L 1159 0 
L 581 0 
L 581 3500 
L 1159 3500 
L 1159 2956 
Q 1356 3278 1631 3431 
Q 1906 3584 2284 3584 
Q 2666 3584 2933 3390 
Q 3200 3197 3328 2828 
z
" transform="scale(0.015625)"/>
       <path id="DejaVuSans-48" d="M 3597 1894 
L 3597 1613 
L 953 1613 
Q 991 1019 1311 708 
Q 1631 397 2203 397 
Q 2534 397 2845 478 
Q 3156 559 3463 722 
L 3463 178 
Q 3153 47 2828 -22 
Q 2503 -91 2169 -91 
Q 1331 -91 842 396 
Q 353 884 353 1716 
Q 353 2575 817 3079 
Q 1281 3584 2069 3584 
Q 2775 3584 3186 3129 
Q 3597 2675 3597 1894 
z
M 3022 2063 
Q 3016 2534 2758 2815 
Q 2500 3097 2075 3097 
Q 1594 3097 1305 2825 
Q 1016 2553 972 2059 
L 3022 2063 
z
" transform="scale(0.015625)"/>
      </defs>
      <use xlink:href="#DejaVuSans-37"/>
      <use xlink:href="#DejaVuSans-4c" transform="translate(58 0)"/>
      <use xlink:href="#DejaVuSans-50" transform="translate(85.78125 0)"/>
      <use xlink:href="#DejaVuSans-48" transform="translate(183.1875 0)"/>
     </g>
    </g>
   </g>
   <g id="matplotlib.axis_2">
    <g id="ytick_1">
     <g id="line2d_6">
      <defs>
       <path id="m44a6e72744" d="M 0 0 
L -3.5 0 
" style="stroke: #000000; stroke-width: 0.8"/>
      </defs>
      <g>
       <use xlink:href="#m44a6e72744" x="51.700781" y="182.533813" style="stroke: #000000; stroke-width: 0.8"/>
      </g>
     </g>
     <g id="text_7">
      <!-- $\mathdefault{10^{-8}}$ -->
      <g transform="translate(21.200781 187.233813) scale(0.1 -0.1)">
       <defs>
        <path id="DejaVuSans-14" d="M 794 531 
L 1825 531 
L 1825 4091 
L 703 3866 
L 703 4441 
L 1819 4666 
L 2450 4666 
L 2450 531 
L 3481 531 
L 3481 0 
L 794 0 
L 794 531 
z
" transform="scale(0.015625)"/>
        <path id="DejaVuSans-c9c" d="M 678 2272 
L 4684 2272 
L 4684 1741 
L 678 1741 
L 678 2272 
z
" transform="scale(0.015625)"/>
       </defs>
       <use xlink:href="#DejaVuSans-14" transform="translate(0 0.746875)"/>
       <use xlink:href="#DejaVuSans-13" transform="translate(63.623047 0.746875)"/>
       <use xlink:href="#DejaVuSans-c9c" transform="translate(128.203125 42.046875) scale(0.7)"/>
       <use xlink:href="#DejaVuSans-1b" transform="translate(186.855469 42.046875) scale(0.7)"/>
      </g>
     </g>
    </g>
    <g id="ytick_2">
     <g id="line2d_7">
      <g>
       <use xlink:href="#m44a6e72744" x="51.700781" y="143.232805" style="stroke: #000000; stroke-width: 0.8"/>
      </g>
     </g>
     <g id="text_8">
      <!-- $\mathdefault{10^{-6}}$ -->
      <g transform="translate(21.200781 147.932805) scale(0.1 -0.1)">
       <use xlink:href="#DejaVuSans-14" transform="translate(0 0.746875)"/>
       <use xlink:href="#DejaVuSans-13" transform="translate(63.623047 0.746875)"/>
       <use xlink:href="#DejaVuSans-c9c" transform="translate(128.203125 42.046875) scale(0.7)"/>
       <use xlink:href="#DejaVuSans-19" transform="translate(186.855469 42.046875) scale(0.7)"/>
      </g>
     </g>
    </g>
    <g id="ytick_3">
     <g id="line2d_8">
      <g>
       <use xlink:href="#m44a6e72744" x="51.700781" y="103.931797" style="stroke: #000000; stroke-width: 0.8"/>
      </g>
     </g>
     <g id="text_9">
      <!-- $\mathdefault{10^{-4}}$ -->
      <g transform="translate(21.200781 108.581797) scale(0.1 -0.1)">
       <use xlink:href="#DejaVuSans-14" transform="translate(0 0.665625)"/>
       <use xlink:href="#DejaVuSans-13" transform="translate(63.623047 0.665625)"/>
       <use xlink:href="#DejaVuSans-c9c" transform="translate(128.203125 41.965625) scale(0.7)"/>
       <use xlink:href="#DejaVuSans-17" transform="translate(186.855469 41.965625) scale(0.7)"/>
      </g>
     </g>
    </g>
    <g id="ytick_4">
     <g id="line2d_9">
      <g>
       <use xlink:href="#m44a6e72744" x="51.700781" y="64.630789" style="stroke: #000000; stroke-width: 0.8"/>
      </g>
     </g>
     <g id="text_10">
      <!-- $\mathdefault{10^{-2}}$ -->
      <g transform="translate(21.200781 69.330789) scale(0.1 -0.1)">
       <use xlink:href="#DejaVuSans-14" transform="translate(0 0.746875)"/>
       <use xlink:href="#DejaVuSans-13" transform="translate(63.623047 0.746875)"/>
       <use xlink:href="#DejaVuSans-c9c" transform="translate(128.203125 42.046875) scale(0.7)"/>
       <use xlink:href="#DejaVuSans-15" transform="translate(186.855469 42.046875) scale(0.7)"/>
      </g>
     </g>
    </g>
    <g id="ytick_5">
     <g id="line2d_10">
      <g>
       <use xlink:href="#m44a6e72744" x="51.700781" y="25.329781" style="stroke: #000000; stroke-width: 0.8"/>
      </g>
     </g>
     <g id="text_11">
      <!-- $\mathdefault{10^{0}}$ -->
      <g transform="translate(27.100781 30.029781) scale(0.1 -0.1)">
       <use xlink:href="#DejaVuSans-14" transform="translate(0 0.746875)"/>
       <use xlink:href="#DejaVuSans-13" transform="translate(63.623047 0.746875)"/>
       <use xlink:href="#DejaVuSans-13" transform="translate(128.203125 42.046875) scale(0.7)"/>
      </g>
     </g>
    </g>
    <g id="text_12">
     <!-- Initial-state feature distance -->
     <g transform="translate(14.798438 177.459922) rotate(-90) scale(0.1 -0.1)">
      <defs>
       <path id="DejaVuSans-2c" d="M 628 4666 
L 1259 4666 
L 1259 0 
L 628 0 
L 628 4666 
z
" transform="scale(0.015625)"/>
       <path id="DejaVuSans-51" d="M 3513 2113 
L 3513 0 
L 2938 0 
L 2938 2094 
Q 2938 2591 2744 2837 
Q 2550 3084 2163 3084 
Q 1697 3084 1428 2787 
Q 1159 2491 1159 1978 
L 1159 0 
L 581 0 
L 581 3500 
L 1159 3500 
L 1159 2956 
Q 1366 3272 1645 3428 
Q 1925 3584 2291 3584 
Q 2894 3584 3203 3211 
Q 3513 2838 3513 2113 
z
" transform="scale(0.015625)"/>
       <path id="DejaVuSans-57" d="M 1172 4494 
L 1172 3500 
L 2356 3500 
L 2356 3053 
L 1172 3053 
L 1172 1153 
Q 1172 725 1289 603 
Q 1406 481 1766 481 
L 2356 481 
L 2356 0 
L 1766 0 
Q 1100 0 847 248 
Q 594 497 594 1153 
L 594 3053 
L 172 3053 
L 172 3500 
L 594 3500 
L 594 4494 
L 1172 4494 
z
" transform="scale(0.015625)"/>
       <path id="DejaVuSans-44" d="M 2194 1759 
Q 1497 1759 1228 1600 
Q 959 1441 959 1056 
Q 959 750 1161 570 
Q 1363 391 1709 391 
Q 2188 391 2477 730 
Q 2766 1069 2766 1631 
L 2766 1759 
L 2194 1759 
z
M 3341 1997 
L 3341 0 
L 2766 0 
L 2766 531 
Q 2569 213 2275 61 
Q 1981 -91 1556 -91 
Q 1019 -91 701 211 
Q 384 513 384 1019 
Q 384 1609 779 1909 
Q 1175 2209 1959 2209 
L 2766 2209 
L 2766 2266 
Q 2766 2663 2505 2880 
Q 2244 3097 1772 3097 
Q 1472 3097 1187 3025 
Q 903 2953 641 2809 
L 641 3341 
Q 956 3463 1253 3523 
Q 1550 3584 1831 3584 
Q 2591 3584 2966 3190 
Q 3341 2797 3341 1997 
z
" transform="scale(0.015625)"/>
       <path id="DejaVuSans-4f" d="M 603 4863 
L 1178 4863 
L 1178 0 
L 603 0 
L 603 4863 
z
" transform="scale(0.015625)"/>
       <path id="DejaVuSans-10" d="M 313 2009 
L 1997 2009 
L 1997 1497 
L 313 1497 
L 313 2009 
z
" transform="scale(0.015625)"/>
       <path id="DejaVuSans-56" d="M 2834 3397 
L 2834 2853 
Q 2591 2978 2328 3040 
Q 2066 3103 1784 3103 
Q 1356 3103 1142 2972 
Q 928 2841 928 2578 
Q 928 2378 1081 2264 
Q 1234 2150 1697 2047 
L 1894 2003 
Q 2506 1872 2764 1633 
Q 3022 1394 3022 966 
Q 3022 478 2636 193 
Q 2250 -91 1575 -91 
Q 1294 -91 989 -36 
Q 684 19 347 128 
L 347 722 
Q 666 556 975 473 
Q 1284 391 1588 391 
Q 1994 391 2212 530 
Q 2431 669 2431 922 
Q 2431 1156 2273 1281 
Q 2116 1406 1581 1522 
L 1381 1569 
Q 847 1681 609 1914 
Q 372 2147 372 2553 
Q 372 3047 722 3315 
Q 1072 3584 1716 3584 
Q 2034 3584 2315 3537 
Q 2597 3491 2834 3397 
z
" transform="scale(0.015625)"/>
       <path id="DejaVuSans-3" transform="scale(0.015625)"/>
       <path id="DejaVuSans-49" d="M 2375 4863 
L 2375 4384 
L 1825 4384 
Q 1516 4384 1395 4259 
Q 1275 4134 1275 3809 
L 1275 3500 
L 2222 3500 
L 2222 3053 
L 1275 3053 
L 1275 0 
L 697 0 
L 697 3053 
L 147 3053 
L 147 3500 
L 697 3500 
L 697 3744 
Q 697 4328 969 4595 
Q 1241 4863 1831 4863 
L 2375 4863 
z
" transform="scale(0.015625)"/>
       <path id="DejaVuSans-58" d="M 544 1381 
L 544 3500 
L 1119 3500 
L 1119 1403 
Q 1119 906 1312 657 
Q 1506 409 1894 409 
Q 2359 409 2629 706 
Q 2900 1003 2900 1516 
L 2900 3500 
L 3475 3500 
L 3475 0 
L 2900 0 
L 2900 538 
Q 2691 219 2414 64 
Q 2138 -91 1772 -91 
Q 1169 -91 856 284 
Q 544 659 544 1381 
z
M 1991 3584 
L 1991 3584 
z
" transform="scale(0.015625)"/>
       <path id="DejaVuSans-55" d="M 2631 2963 
Q 2534 3019 2420 3045 
Q 2306 3072 2169 3072 
Q 1681 3072 1420 2755 
Q 1159 2438 1159 1844 
L 1159 0 
L 581 0 
L 581 3500 
L 1159 3500 
L 1159 2956 
Q 1341 3275 1631 3429 
Q 1922 3584 2338 3584 
Q 2397 3584 2469 3576 
Q 2541 3569 2628 3553 
L 2631 2963 
z
" transform="scale(0.015625)"/>
       <path id="DejaVuSans-47" d="M 2906 2969 
L 2906 4863 
L 3481 4863 
L 3481 0 
L 2906 0 
L 2906 525 
Q 2725 213 2448 61 
Q 2172 -91 1784 -91 
Q 1150 -91 751 415 
Q 353 922 353 1747 
Q 353 2572 751 3078 
Q 1150 3584 1784 3584 
Q 2172 3584 2448 3432 
Q 2725 3281 2906 2969 
z
M 947 1747 
Q 947 1113 1208 752 
Q 1469 391 1925 391 
Q 2381 391 2643 752 
Q 2906 1113 2906 1747 
Q 2906 2381 2643 2742 
Q 2381 3103 1925 3103 
Q 1469 3103 1208 2742 
Q 947 2381 947 1747 
z
" transform="scale(0.015625)"/>
       <path id="DejaVuSans-46" d="M 3122 3366 
L 3122 2828 
Q 2878 2963 2633 3030 
Q 2388 3097 2138 3097 
Q 1578 3097 1268 2742 
Q 959 2388 959 1747 
Q 959 1106 1268 751 
Q 1578 397 2138 397 
Q 2388 397 2633 464 
Q 2878 531 3122 666 
L 3122 134 
Q 2881 22 2623 -34 
Q 2366 -91 2075 -91 
Q 1284 -91 818 406 
Q 353 903 353 1747 
Q 353 2603 823 3093 
Q 1294 3584 2113 3584 
Q 2378 3584 2631 3529 
Q 2884 3475 3122 3366 
z
" transform="scale(0.015625)"/>
      </defs>
      <use xlink:href="#DejaVuSans-2c"/>
      <use xlink:href="#DejaVuSans-51" transform="translate(29.5 0)"/>
      <use xlink:href="#DejaVuSans-4c" transform="translate(92.875 0)"/>
      <use xlink:href="#DejaVuSans-57" transform="translate(120.65625 0)"/>
      <use xlink:href="#DejaVuSans-4c" transform="translate(159.859375 0)"/>
      <use xlink:href="#DejaVuSans-44" transform="translate(187.640625 0)"/>
      <use xlink:href="#DejaVuSans-4f" transform="translate(248.921875 0)"/>
      <use xlink:href="#DejaVuSans-10" transform="translate(276.703125 0)"/>
      <use xlink:href="#DejaVuSans-56" transform="translate(312.78125 0)"/>
      <use xlink:href="#DejaVuSans-57" transform="translate(364.875 0)"/>
      <use xlink:href="#DejaVuSans-44" transform="translate(404.078125 0)"/>
      <use xlink:href="#DejaVuSans-57" transform="translate(465.359375 0)"/>
      <use xlink:href="#DejaVuSans-48" transform="translate(504.5625 0)"/>
      <use xlink:href="#DejaVuSans-3" transform="translate(566.09375 0)"/>
      <use xlink:href="#DejaVuSans-49" transform="translate(597.875 0)"/>
      <use xlink:href="#DejaVuSans-48" transform="translate(633.078125 0)"/>
      <use xlink:href="#DejaVuSans-44" transform="translate(694.609375 0)"/>
      <use xlink:href="#DejaVuSans-57" transform="translate(755.890625 0)"/>
      <use xlink:href="#DejaVuSans-58" transform="translate(795.09375 0)"/>
      <use xlink:href="#DejaVuSans-55" transform="translate(858.46875 0)"/>
      <use xlink:href="#DejaVuSans-48" transform="translate(897.375 0)"/>
      <use xlink:href="#DejaVuSans-3" transform="translate(958.90625 0)"/>
      <use xlink:href="#DejaVuSans-47" transform="translate(990.6875 0)"/>
      <use xlink:href="#DejaVuSans-4c" transform="translate(1054.171875 0)"/>
      <use xlink:href="#DejaVuSans-56" transform="translate(1081.953125 0)"/>
      <use xlink:href="#DejaVuSans-57" transform="translate(1134.046875 0)"/>
      <use xlink:href="#DejaVuSans-44" transform="translate(1173.25 0)"/>
      <use xlink:href="#DejaVuSans-51" transform="translate(1234.53125 0)"/>
      <use xlink:href="#DejaVuSans-46" transform="translate(1297.90625 0)"/>
      <use xlink:href="#DejaVuSans-48" transform="translate(1352.890625 0)"/>
     </g>
    </g>
   </g>
   <g id="line2d_11">
    <path d="M 63.544311 20.232753 
L 66.542673 24.168925 
L 69.541035 26.197999 
L 72.539397 28.888407 
L 75.537759 32.370426 
L 78.536121 35.241369 
L 81.534483 37.472909 
L 84.532845 39.844197 
L 87.531207 42.244046 
L 90.529569 44.610453 
L 93.527931 46.835762 
L 96.526293 48.986188 
L 99.524655 51.143907 
L 102.523017 53.351622 
L 105.521379 55.538449 
L 108.519741 57.715274 
L 111.518103 59.906254 
L 114.516465 62.060619 
L 117.514827 64.20259 
L 120.513189 66.345244 
L 123.511551 68.583193 
L 126.509913 70.780107 
L 129.508275 72.961853 
L 132.506637 75.166554 
L 135.504999 77.350062 
L 138.503361 79.50838 
L 141.501723 81.671721 
L 144.500085 83.829435 
L 147.498447 86.014292 
L 150.496809 88.220412 
L 153.495171 90.40879 
L 156.493533 92.589313 
L 159.491895 94.75037 
L 162.490256 96.936387 
L 165.488618 99.076734 
L 168.48698 101.273726 
L 171.485342 103.460438 
L 174.483704 105.658035 
L 177.482066 107.847795 
L 180.480428 110.045915 
L 183.47879 112.20931 
L 186.477152 114.379193 
L 189.475514 116.579612 
L 192.473876 118.761911 
L 195.472238 120.941035 
L 198.4706 123.119238 
L 201.468962 125.30026 
L 204.467324 127.479227 
L 207.465686 129.630474 
L 210.464048 131.721399 
L 213.46241 133.813374 
L 216.460772 135.990414 
L 219.459134 138.289806 
L 222.457496 140.483107 
L 225.455858 142.691105 
L 228.45422 144.905735 
L 231.452582 147.095675 
L 234.450944 149.289539 
L 237.449306 151.454608 
L 240.447668 153.631622 
L 243.44603 155.795611 
L 246.444392 157.989683 
L 249.442754 160.172085 
L 252.441116 162.331495 
L 255.439478 164.530478 
L 258.43784 166.726055 
L 261.436202 168.852005 
L 264.434564 170.980685 
L 267.432926 173.179336 
L 270.431288 175.387533 
L 273.42965 177.585587 
L 276.428012 179.759037 
L 279.426374 181.952612 
L 282.424736 184.164874 
L 285.423098 186.35233 
L 288.42146 188.527648 
L 291.419822 190.702068 
L 294.418184 192.884651 
L 297.416546 195.062588 
L 300.414908 197.228672 
" clip-path="url(#pd961f47475)" style="fill: none; stroke: #1f77b4; stroke-width: 1.6; stroke-linecap: square"/>
   </g>
   <g id="line2d_12">
    <path d="M 63.544311 18.158697 
L 66.542673 20.361359 
L 69.541035 20.395154 
L 72.539397 21.296957 
L 75.537759 23.796044 
L 78.536121 25.814129 
L 81.534483 26.308505 
L 84.532845 27.424211 
L 87.531207 29.363071 
L 90.529569 31.255575 
L 93.527931 32.441246 
L 96.526293 33.654849 
L 99.524655 35.003936 
L 102.523017 36.058862 
L 105.521379 36.9627 
L 108.519741 37.965567 
L 111.518103 38.932892 
L 114.516465 39.739153 
L 117.514827 40.478233 
L 120.513189 41.370709 
L 123.511551 42.541673 
L 126.509913 43.50486 
L 129.508275 44.381992 
L 132.506637 45.459278 
L 135.504999 46.52629 
L 138.503361 47.602426 
L 141.501723 48.576318 
L 144.500085 49.518487 
L 147.498447 50.450302 
L 150.496809 51.403945 
L 153.495171 52.353879 
L 156.493533 53.292033 
L 159.491895 54.195354 
L 162.490256 55.150069 
L 165.488618 56.068515 
L 168.48698 57.051855 
L 171.485342 57.987586 
L 174.483704 58.906907 
L 177.482066 59.873465 
L 180.480428 60.894776 
L 183.47879 61.885664 
L 186.477152 62.843125 
L 189.475514 63.809848 
L 192.473876 64.757783 
L 195.472238 65.700548 
L 198.4706 66.64334 
L 201.468962 67.586982 
L 204.467324 68.532119 
L 207.465686 69.452445 
L 210.464048 70.289599 
L 213.46241 71.116709 
L 216.460772 72.041958 
L 219.459134 73.094836 
L 222.457496 73.983069 
L 225.455858 74.974216 
L 228.45422 76.05146 
L 231.452582 77.107402 
L 234.450944 78.084225 
L 237.449306 79.052385 
L 240.447668 80.000046 
L 243.44603 80.928651 
L 246.444392 81.88538 
L 249.442754 82.831866 
L 252.441116 83.730431 
L 255.439478 84.699504 
L 258.43784 85.695327 
L 261.436202 86.600457 
L 264.434564 87.484378 
L 267.432926 88.419359 
L 270.431288 89.346797 
L 273.42965 90.321274 
L 276.428012 91.292062 
L 279.426374 92.314849 
L 282.424736 93.326083 
L 285.423098 94.273797 
L 288.42146 95.221776 
L 291.419822 96.184384 
L 294.418184 97.138396 
L 297.416546 98.08955 
L 300.414908 99.022682 
" clip-path="url(#pd961f47475)" style="fill: none; stroke: #ff7f0e; stroke-width: 1.6; stroke-linecap: square"/>
   </g>
   <g id="line2d_13">
    <path d="M 63.544311 16.88705 
L 66.542673 17.941695 
L 69.541035 16.636835 
L 72.539397 16.248984 
L 75.537759 17.795947 
L 78.536121 18.942491 
L 81.534483 17.933658 
L 84.532845 17.833033 
L 87.531207 19.303715 
L 90.529569 20.707525 
L 93.527931 20.346553 
L 96.526293 20.587776 
L 99.524655 22.23178 
L 102.523017 23.051202 
L 105.521379 22.334886 
L 108.519741 22.524872 
L 111.518103 23.641261 
L 114.516465 23.669114 
L 117.514827 22.591998 
L 120.513189 22.630559 
L 123.511551 24.029221 
L 126.509913 24.248337 
L 129.508275 23.473465 
L 132.506637 23.982374 
L 135.504999 25.367306 
L 138.503361 26.154664 
L 141.501723 25.81183 
L 144.500085 26.432923 
L 147.498447 27.689874 
L 150.496809 27.861369 
L 153.495171 27.523178 
L 156.493533 28.036508 
L 159.491895 28.680598 
L 162.490256 28.207627 
L 165.488618 27.604576 
L 168.48698 28.267977 
L 171.485342 29.022127 
L 174.483704 28.714852 
L 177.482066 28.498995 
L 180.480428 29.378811 
L 183.47879 30.549428 
L 186.477152 30.678122 
L 189.475514 30.560843 
L 192.473876 31.22825 
L 195.472238 31.963911 
L 198.4706 31.924593 
L 201.468962 32.017954 
L 204.467324 32.580497 
L 207.465686 32.619943 
L 210.464048 31.877862 
L 213.46241 31.577238 
L 216.460772 32.150115 
L 219.459134 32.715756 
L 222.457496 32.247438 
L 225.455858 32.372488 
L 228.45422 33.386422 
L 231.452582 34.236619 
L 234.450944 34.06348 
L 237.449306 34.400073 
L 240.447668 35.189085 
L 243.44603 35.636155 
L 246.444392 35.552758 
L 249.442754 35.877005 
L 252.441116 36.41269 
L 255.439478 36.33196 
L 258.43784 36.196682 
L 261.436202 36.248235 
L 264.434564 36.636137 
L 267.432926 36.719487 
L 270.431288 36.417594 
L 273.42965 36.780035 
L 276.428012 37.563409 
L 279.426374 38.159433 
L 282.424736 38.113975 
L 285.423098 38.266924 
L 288.42146 38.917248 
L 291.419822 39.300025 
L 294.418184 39.299612 
L 297.416546 39.578009 
L 300.414908 40.002409 
" clip-path="url(#pd961f47475)" style="fill: none; stroke: #2ca02c; stroke-width: 1.6; stroke-linecap: square"/>
   </g>
   <g id="patch_3">
    <path d="M 51.700781 206.277656 
L 51.700781 7.2 
" style="fill: none; stroke: #000000; stroke-width: 0.8; stroke-linejoin: miter; stroke-linecap: square"/>
   </g>
   <g id="patch_4">
    <path d="M 51.700781 206.277656 
L 312.258437 206.277656 
" style="fill: none; stroke: #000000; stroke-width: 0.8; stroke-linejoin: miter; stroke-linecap: square"/>
   </g>
   <g id="legend_1">
    <g id="patch_5">
     <path d="M 57.650781 202.027656 
L 124.928906 202.027656 
Q 126.628906 202.027656 126.628906 200.327656 
L 126.628906 148.674883 
Q 126.628906 146.974883 124.928906 146.974883 
L 57.650781 146.974883 
Q 55.950781 146.974883 55.950781 148.674883 
L 55.950781 200.327656 
Q 55.950781 202.027656 57.650781 202.027656 
z
" style="fill: #ffffff; opacity: 0.8; stroke: #cccccc; stroke-linejoin: miter"/>
    </g>
    <g id="text_13">
     <!-- transmission -->
     <g transform="translate(59.350781 157.97332) scale(0.1 -0.1)">
      <defs>
       <path id="DejaVuSans-52" d="M 1959 3097 
Q 1497 3097 1228 2736 
Q 959 2375 959 1747 
Q 959 1119 1226 758 
Q 1494 397 1959 397 
Q 2419 397 2687 759 
Q 2956 1122 2956 1747 
Q 2956 2369 2687 2733 
Q 2419 3097 1959 3097 
z
M 1959 3584 
Q 2709 3584 3137 3096 
Q 3566 2609 3566 1747 
Q 3566 888 3137 398 
Q 2709 -91 1959 -91 
Q 1206 -91 779 398 
Q 353 888 353 1747 
Q 353 2609 779 3096 
Q 1206 3584 1959 3584 
z
" transform="scale(0.015625)"/>
      </defs>
      <use xlink:href="#DejaVuSans-57"/>
      <use xlink:href="#DejaVuSans-55" transform="translate(39.203125 0)"/>
      <use xlink:href="#DejaVuSans-44" transform="translate(80.3125 0)"/>
      <use xlink:href="#DejaVuSans-51" transform="translate(141.59375 0)"/>
      <use xlink:href="#DejaVuSans-56" transform="translate(204.96875 0)"/>
      <use xlink:href="#DejaVuSans-50" transform="translate(257.0625 0)"/>
      <use xlink:href="#DejaVuSans-4c" transform="translate(354.46875 0)"/>
      <use xlink:href="#DejaVuSans-56" transform="translate(382.25 0)"/>
      <use xlink:href="#DejaVuSans-56" transform="translate(434.34375 0)"/>
      <use xlink:href="#DejaVuSans-4c" transform="translate(486.4375 0)"/>
      <use xlink:href="#DejaVuSans-52" transform="translate(514.21875 0)"/>
      <use xlink:href="#DejaVuSans-51" transform="translate(575.40625 0)"/>
     </g>
    </g>
    <g id="line2d_14">
     <path d="M 69.926953 168.109336 
L 78.426953 168.109336 
L 86.926953 168.109336 
" style="fill: none; stroke: #1f77b4; stroke-width: 1.6; stroke-linecap: square"/>
    </g>
    <g id="text_14">
     <!-- 0.6 -->
     <g transform="translate(93.726953 171.084336) scale(0.085 -0.085)">
      <defs>
       <path id="DejaVuSans-11" d="M 684 794 
L 1344 794 
L 1344 0 
L 684 0 
L 684 794 
z
" transform="scale(0.015625)"/>
      </defs>
      <use xlink:href="#DejaVuSans-13"/>
      <use xlink:href="#DejaVuSans-11" transform="translate(63.625 0)"/>
      <use xlink:href="#DejaVuSans-19" transform="translate(95.40625 0)"/>
     </g>
    </g>
    <g id="line2d_15">
     <path d="M 69.926953 180.86 
L 78.426953 180.86 
L 86.926953 180.86 
" style="fill: none; stroke: #ff7f0e; stroke-width: 1.6; stroke-linecap: square"/>
    </g>
    <g id="text_15">
     <!-- 0.8 -->
     <g transform="translate(93.726953 183.835) scale(0.085 -0.085)">
      <use xlink:href="#DejaVuSans-13"/>
      <use xlink:href="#DejaVuSans-11" transform="translate(63.625 0)"/>
      <use xlink:href="#DejaVuSans-1b" transform="translate(95.40625 0)"/>
     </g>
    </g>
    <g id="line2d_16">
     <path d="M 69.926953 193.610664 
L 78.426953 193.610664 
L 86.926953 193.610664 
" style="fill: none; stroke: #2ca02c; stroke-width: 1.6; stroke-linecap: square"/>
    </g>
    <g id="text_16">
     <!-- 0.95 -->
     <g transform="translate(93.726953 196.585664) scale(0.085 -0.085)">
      <defs>
       <path id="DejaVuSans-1c" d="M 703 97 
L 703 672 
Q 941 559 1184 500 
Q 1428 441 1663 441 
Q 2288 441 2617 861 
Q 2947 1281 2994 2138 
Q 2813 1869 2534 1725 
Q 2256 1581 1919 1581 
Q 1219 1581 811 2004 
Q 403 2428 403 3163 
Q 403 3881 828 4315 
Q 1253 4750 1959 4750 
Q 2769 4750 3195 4129 
Q 3622 3509 3622 2328 
Q 3622 1225 3098 567 
Q 2575 -91 1691 -91 
Q 1453 -91 1209 -44 
Q 966 3 703 97 
z
M 1959 2075 
Q 2384 2075 2632 2365 
Q 2881 2656 2881 3163 
Q 2881 3666 2632 3958 
Q 2384 4250 1959 4250 
Q 1534 4250 1286 3958 
Q 1038 3666 1038 3163 
Q 1038 2656 1286 2365 
Q 1534 2075 1959 2075 
z
" transform="scale(0.015625)"/>
       <path id="DejaVuSans-18" d="M 691 4666 
L 3169 4666 
L 3169 4134 
L 1269 4134 
L 1269 2991 
Q 1406 3038 1543 3061 
Q 1681 3084 1819 3084 
Q 2600 3084 3056 2656 
Q 3513 2228 3513 1497 
Q 3513 744 3044 326 
Q 2575 -91 1722 -91 
Q 1428 -91 1123 -41 
Q 819 9 494 109 
L 494 744 
Q 775 591 1075 516 
Q 1375 441 1709 441 
Q 2250 441 2565 725 
Q 2881 1009 2881 1497 
Q 2881 1984 2565 2268 
Q 2250 2553 1709 2553 
Q 1456 2553 1204 2497 
Q 953 2441 691 2322 
L 691 4666 
z
" transform="scale(0.015625)"/>
      </defs>
      <use xlink:href="#DejaVuSans-13"/>
      <use xlink:href="#DejaVuSans-11" transform="translate(63.625 0)"/>
      <use xlink:href="#DejaVuSans-1c" transform="translate(95.40625 0)"/>
      <use xlink:href="#DejaVuSans-18" transform="translate(159.03125 0)"/>
     </g>
    </g>
   </g>
  </g>
  <g id="axes_2">
   <g id="patch_6">
    <path d="M 372.460781 206.277656 
L 633.018437 206.277656 
L 633.018437 7.2 
L 372.460781 7.2 
z
" style="fill: #ffffff"/>
   </g>
   <g id="matplotlib.axis_3">
    <g id="xtick_6">
     <g id="line2d_17">
      <g>
       <use xlink:href="#m6596229947" x="384.304311" y="206.277656" style="stroke: #000000; stroke-width: 0.8"/>
      </g>
     </g>
     <g id="text_17">
      <!-- 0 -->
      <g transform="translate(381.123061 220.875312) scale(0.1 -0.1)">
       <use xlink:href="#DejaVuSans-13"/>
      </g>
     </g>
    </g>
    <g id="xtick_7">
     <g id="line2d_18">
      <g>
       <use xlink:href="#m6596229947" x="444.271551" y="206.277656" style="stroke: #000000; stroke-width: 0.8"/>
      </g>
     </g>
     <g id="text_18">
      <!-- 20 -->
      <g transform="translate(437.909051 220.875312) scale(0.1 -0.1)">
       <use xlink:href="#DejaVuSans-15"/>
       <use xlink:href="#DejaVuSans-13" transform="translate(63.625 0)"/>
      </g>
     </g>
    </g>
    <g id="xtick_8">
     <g id="line2d_19">
      <g>
       <use xlink:href="#m6596229947" x="504.23879" y="206.277656" style="stroke: #000000; stroke-width: 0.8"/>
      </g>
     </g>
     <g id="text_19">
      <!-- 40 -->
      <g transform="translate(497.87629 220.875312) scale(0.1 -0.1)">
       <use xlink:href="#DejaVuSans-17"/>
       <use xlink:href="#DejaVuSans-13" transform="translate(63.625 0)"/>
      </g>
     </g>
    </g>
    <g id="xtick_9">
     <g id="line2d_20">
      <g>
       <use xlink:href="#m6596229947" x="564.20603" y="206.277656" style="stroke: #000000; stroke-width: 0.8"/>
      </g>
     </g>
     <g id="text_20">
      <!-- 60 -->
      <g transform="translate(557.84353 220.875312) scale(0.1 -0.1)">
       <use xlink:href="#DejaVuSans-19"/>
       <use xlink:href="#DejaVuSans-13" transform="translate(63.625 0)"/>
      </g>
     </g>
    </g>
    <g id="xtick_10">
     <g id="line2d_21">
      <g>
       <use xlink:href="#m6596229947" x="624.17327" y="206.277656" style="stroke: #000000; stroke-width: 0.8"/>
      </g>
     </g>
     <g id="text_21">
      <!-- 80 -->
      <g transform="translate(617.81077 220.875312) scale(0.1 -0.1)">
       <use xlink:href="#DejaVuSans-1b"/>
       <use xlink:href="#DejaVuSans-13" transform="translate(63.625 0)"/>
      </g>
     </g>
    </g>
    <g id="text_22">
     <!-- Time -->
     <g transform="translate(490.503672 234.876094) scale(0.1 -0.1)">
      <use xlink:href="#DejaVuSans-37"/>
      <use xlink:href="#DejaVuSans-4c" transform="translate(58 0)"/>
      <use xlink:href="#DejaVuSans-50" transform="translate(85.78125 0)"/>
      <use xlink:href="#DejaVuSans-48" transform="translate(183.1875 0)"/>
     </g>
    </g>
   </g>
   <g id="matplotlib.axis_4">
    <g id="ytick_6">
     <g id="line2d_22">
      <g>
       <use xlink:href="#m44a6e72744" x="372.460781" y="191.873922" style="stroke: #000000; stroke-width: 0.8"/>
      </g>
     </g>
     <g id="text_23">
      <!-- $\mathdefault{10^{-12}}$ -->
      <g transform="translate(337.560781 196.573922) scale(0.1 -0.1)">
       <use xlink:href="#DejaVuSans-14" transform="translate(0 0.746875)"/>
       <use xlink:href="#DejaVuSans-13" transform="translate(63.623047 0.746875)"/>
       <use xlink:href="#DejaVuSans-c9c" transform="translate(128.203125 42.046875) scale(0.7)"/>
       <use xlink:href="#DejaVuSans-14" transform="translate(186.855469 42.046875) scale(0.7)"/>
       <use xlink:href="#DejaVuSans-15" transform="translate(231.391602 42.046875) scale(0.7)"/>
      </g>
     </g>
    </g>
    <g id="ytick_7">
     <g id="line2d_23">
      <g>
       <use xlink:href="#m44a6e72744" x="372.460781" y="151.027494" style="stroke: #000000; stroke-width: 0.8"/>
      </g>
     </g>
     <g id="text_24">
      <!-- $\mathdefault{10^{-10}}$ -->
      <g transform="translate(337.560781 155.727494) scale(0.1 -0.1)">
       <use xlink:href="#DejaVuSans-14" transform="translate(0 0.746875)"/>
       <use xlink:href="#DejaVuSans-13" transform="translate(63.623047 0.746875)"/>
       <use xlink:href="#DejaVuSans-c9c" transform="translate(128.203125 42.046875) scale(0.7)"/>
       <use xlink:href="#DejaVuSans-14" transform="translate(186.855469 42.046875) scale(0.7)"/>
       <use xlink:href="#DejaVuSans-13" transform="translate(231.391602 42.046875) scale(0.7)"/>
      </g>
     </g>
    </g>
    <g id="ytick_8">
     <g id="line2d_24">
      <g>
       <use xlink:href="#m44a6e72744" x="372.460781" y="110.181065" style="stroke: #000000; stroke-width: 0.8"/>
      </g>
     </g>
     <g id="text_25">
      <!-- $\mathdefault{10^{-8}}$ -->
      <g transform="translate(341.960781 114.881065) scale(0.1 -0.1)">
       <use xlink:href="#DejaVuSans-14" transform="translate(0 0.746875)"/>
       <use xlink:href="#DejaVuSans-13" transform="translate(63.623047 0.746875)"/>
       <use xlink:href="#DejaVuSans-c9c" transform="translate(128.203125 42.046875) scale(0.7)"/>
       <use xlink:href="#DejaVuSans-1b" transform="translate(186.855469 42.046875) scale(0.7)"/>
      </g>
     </g>
    </g>
    <g id="ytick_9">
     <g id="line2d_25">
      <g>
       <use xlink:href="#m44a6e72744" x="372.460781" y="69.334637" style="stroke: #000000; stroke-width: 0.8"/>
      </g>
     </g>
     <g id="text_26">
      <!-- $\mathdefault{10^{-6}}$ -->
      <g transform="translate(341.960781 74.034637) scale(0.1 -0.1)">
       <use xlink:href="#DejaVuSans-14" transform="translate(0 0.746875)"/>
       <use xlink:href="#DejaVuSans-13" transform="translate(63.623047 0.746875)"/>
       <use xlink:href="#DejaVuSans-c9c" transform="translate(128.203125 42.046875) scale(0.7)"/>
       <use xlink:href="#DejaVuSans-19" transform="translate(186.855469 42.046875) scale(0.7)"/>
      </g>
     </g>
    </g>
    <g id="ytick_10">
     <g id="line2d_26">
      <g>
       <use xlink:href="#m44a6e72744" x="372.460781" y="28.488208" style="stroke: #000000; stroke-width: 0.8"/>
      </g>
     </g>
     <g id="text_27">
      <!-- $\mathdefault{10^{-4}}$ -->
      <g transform="translate(341.960781 33.138208) scale(0.1 -0.1)">
       <use xlink:href="#DejaVuSans-14" transform="translate(0 0.665625)"/>
       <use xlink:href="#DejaVuSans-13" transform="translate(63.623047 0.665625)"/>
       <use xlink:href="#DejaVuSans-c9c" transform="translate(128.203125 41.965625) scale(0.7)"/>
       <use xlink:href="#DejaVuSans-17" transform="translate(186.855469 41.965625) scale(0.7)"/>
      </g>
     </g>
    </g>
    <g id="text_28">
     <!-- Impulse feature distance -->
     <g transform="translate(331.158437 168.913828) rotate(-90) scale(0.1 -0.1)">
      <defs>
       <path id="DejaVuSans-53" d="M 1159 525 
L 1159 -1331 
L 581 -1331 
L 581 3500 
L 1159 3500 
L 1159 2969 
Q 1341 3281 1617 3432 
Q 1894 3584 2278 3584 
Q 2916 3584 3314 3078 
Q 3713 2572 3713 1747 
Q 3713 922 3314 415 
Q 2916 -91 2278 -91 
Q 1894 -91 1617 61 
Q 1341 213 1159 525 
z
M 3116 1747 
Q 3116 2381 2855 2742 
Q 2594 3103 2138 3103 
Q 1681 3103 1420 2742 
Q 1159 2381 1159 1747 
Q 1159 1113 1420 752 
Q 1681 391 2138 391 
Q 2594 391 2855 752 
Q 3116 1113 3116 1747 
z
" transform="scale(0.015625)"/>
      </defs>
      <use xlink:href="#DejaVuSans-2c"/>
      <use xlink:href="#DejaVuSans-50" transform="translate(29.5 0)"/>
      <use xlink:href="#DejaVuSans-53" transform="translate(126.90625 0)"/>
      <use xlink:href="#DejaVuSans-58" transform="translate(190.390625 0)"/>
      <use xlink:href="#DejaVuSans-4f" transform="translate(253.765625 0)"/>
      <use xlink:href="#DejaVuSans-56" transform="translate(281.546875 0)"/>
      <use xlink:href="#DejaVuSans-48" transform="translate(333.640625 0)"/>
      <use xlink:href="#DejaVuSans-3" transform="translate(395.171875 0)"/>
      <use xlink:href="#DejaVuSans-49" transform="translate(426.953125 0)"/>
      <use xlink:href="#DejaVuSans-48" transform="translate(462.15625 0)"/>
      <use xlink:href="#DejaVuSans-44" transform="translate(523.6875 0)"/>
      <use xlink:href="#DejaVuSans-57" transform="translate(584.96875 0)"/>
      <use xlink:href="#DejaVuSans-58" transform="translate(624.171875 0)"/>
      <use xlink:href="#DejaVuSans-55" transform="translate(687.546875 0)"/>
      <use xlink:href="#DejaVuSans-48" transform="translate(726.453125 0)"/>
      <use xlink:href="#DejaVuSans-3" transform="translate(787.984375 0)"/>
      <use xlink:href="#DejaVuSans-47" transform="translate(819.765625 0)"/>
      <use xlink:href="#DejaVuSans-4c" transform="translate(883.25 0)"/>
      <use xlink:href="#DejaVuSans-56" transform="translate(911.03125 0)"/>
      <use xlink:href="#DejaVuSans-57" transform="translate(963.125 0)"/>
      <use xlink:href="#DejaVuSans-44" transform="translate(1002.328125 0)"/>
      <use xlink:href="#DejaVuSans-51" transform="translate(1063.609375 0)"/>
      <use xlink:href="#DejaVuSans-46" transform="translate(1126.984375 0)"/>
      <use xlink:href="#DejaVuSans-48" transform="translate(1181.96875 0)"/>
     </g>
    </g>
   </g>
   <g id="line2d_27">
    <path d="M 384.304311 18.294225 
L 387.302673 20.534967 
L 390.301035 22.795344 
L 393.299397 25.075774 
L 396.297759 27.349076 
L 399.296121 29.604397 
L 402.294483 31.854645 
L 405.292845 34.112387 
L 408.291207 36.378143 
L 411.289569 38.647507 
L 414.287931 40.918416 
L 417.286293 43.190407 
L 420.284655 45.461435 
L 423.283017 47.728155 
L 426.281379 49.98918 
L 429.279741 52.24715 
L 432.278103 54.50715 
L 435.276465 56.77291 
L 438.274827 59.04416 
L 441.273189 61.317021 
L 444.271551 63.586751 
L 447.269913 65.850747 
L 450.268275 68.109968 
L 453.266637 70.368185 
L 456.264999 72.629691 
L 459.263361 74.896805 
L 462.261723 77.168533 
L 465.260085 79.441113 
L 468.258447 81.710232 
L 471.256809 83.973638 
L 474.255171 86.232556 
L 477.253533 88.490949 
L 480.251895 90.753092 
L 483.250256 93.020978 
L 486.248618 95.29312 
L 489.24698 97.565451 
L 492.245342 99.833775 
L 495.243704 102.096333 
L 498.242066 104.354876 
L 501.240428 106.61359 
L 504.23879 108.87654 
L 507.237152 111.145226 
L 510.235514 113.417682 
L 513.233876 115.689655 
L 516.232238 117.957169 
L 519.2306 120.218955 
L 522.228962 122.477235 
L 525.227324 124.736351 
L 528.225686 127.000126 
L 531.224048 129.269561 
L 534.22241 131.542237 
L 537.220772 133.813764 
L 540.219134 136.080435 
L 543.217496 138.341496 
L 546.215858 140.599608 
L 549.21422 142.859213 
L 552.212582 145.123838 
L 555.210944 147.393969 
L 558.209306 149.666766 
L 561.207668 151.937764 
L 564.20603 154.203574 
L 567.204392 156.463968 
L 570.202754 158.722016 
L 573.201116 160.982192 
L 576.199478 163.247671 
L 579.19784 165.518439 
L 582.196202 167.791251 
L 585.194564 170.061647 
L 588.192926 172.32659 
L 591.191288 174.586404 
L 594.18965 176.844469 
L 597.188012 179.105242 
L 600.186374 181.371604 
L 603.184736 183.64292 
L 606.183098 185.915664 
L 609.18146 188.185351 
L 612.179822 190.449519 
L 615.178184 192.708799 
L 618.176546 194.967228 
L 621.174908 197.228672 
" clip-path="url(#p77748f3c46)" style="fill: none; stroke: #1f77b4; stroke-width: 1.6; stroke-linecap: square"/>
   </g>
   <g id="line2d_28">
    <path d="M 384.304311 17.014235 
L 387.302673 17.964189 
L 390.301035 18.938295 
L 393.299397 19.943543 
L 396.297759 20.929278 
L 399.296121 21.882453 
L 402.294483 22.853984 
L 405.292845 23.872384 
L 408.291207 24.900973 
L 411.289569 25.895154 
L 414.287931 26.859541 
L 417.286293 27.829301 
L 420.284655 28.82408 
L 423.283017 29.836163 
L 426.281379 30.846929 
L 429.279741 31.844134 
L 432.278103 32.82821 
L 435.276465 33.807 
L 438.274827 34.786017 
L 441.273189 35.765806 
L 444.271551 36.748046 
L 447.269913 37.738507 
L 450.268275 38.740068 
L 453.266637 39.745604 
L 456.264999 40.742317 
L 459.263361 41.72394 
L 462.261723 42.696871 
L 465.260085 43.674016 
L 468.258447 44.663961 
L 471.256809 45.665591 
L 474.255171 46.67063 
L 477.253533 47.670012 
L 480.251895 48.658948 
L 483.250256 49.638429 
L 486.248618 50.613964 
L 489.24698 51.592999 
L 492.245342 52.581535 
L 495.243704 53.580659 
L 498.242066 54.585059 
L 501.240428 55.585559 
L 504.23879 56.574986 
L 507.237152 57.553287 
L 510.235514 58.527722 
L 513.233876 59.507921 
L 516.232238 60.499631 
L 519.2306 61.501382 
L 522.228962 62.505714 
L 525.227324 63.5038 
L 528.225686 64.490664 
L 531.224048 65.46802 
L 534.22241 66.443173 
L 537.220772 67.424706 
L 540.219134 68.417467 
L 543.217496 69.419652 
L 546.215858 70.423713 
L 549.21422 71.420799 
L 552.212582 72.406254 
L 555.210944 73.382622 
L 558.209306 74.358042 
L 561.207668 75.341158 
L 564.20603 76.335869 
L 567.204392 77.339066 
L 570.202754 78.342528 
L 573.201116 79.337851 
L 576.199478 80.321568 
L 579.19784 81.297277 
L 582.196202 82.273404 
L 585.194564 83.258071 
L 588.192926 84.254252 
L 591.191288 85.258011 
L 594.18965 86.26079 
L 597.188012 87.254548 
L 600.186374 88.236735 
L 603.184736 89.211892 
L 606.183098 90.18882 
L 609.18146 91.175179 
L 612.179822 92.172917 
L 615.178184 93.177135 
L 618.176546 94.178987 
L 621.174908 95.171011 
" clip-path="url(#p77748f3c46)" style="fill: none; stroke: #ff7f0e; stroke-width: 1.6; stroke-linecap: square"/>
   </g>
   <g id="line2d_29">
    <path d="M 384.304311 16.248984 
L 387.302673 16.423772 
L 390.301035 16.623908 
L 393.299397 16.86211 
L 396.297759 17.05957 
L 399.296121 17.203488 
L 402.294483 17.409951 
L 405.292845 17.736352 
L 408.291207 18.068359 
L 411.289569 18.282356 
L 414.287931 18.429295 
L 417.286293 18.628927 
L 420.284655 18.899113 
L 423.283017 19.181708 
L 426.281379 19.441752 
L 429.279741 19.674679 
L 432.278103 19.879123 
L 435.276465 20.074207 
L 438.274827 20.286929 
L 441.273189 20.501802 
L 444.271551 20.68672 
L 447.269913 20.87212 
L 450.268275 21.124148 
L 453.266637 21.4351 
L 456.264999 21.714356 
L 459.263361 21.910819 
L 462.261723 22.078514 
L 465.260085 22.288316 
L 468.258447 22.546784 
L 471.256809 22.818557 
L 474.255171 23.075083 
L 477.253533 23.305663 
L 480.251895 23.514839 
L 483.250256 23.71985 
L 486.248618 23.929106 
L 489.24698 24.130492 
L 492.245342 24.32359 
L 495.243704 24.542678 
L 498.242066 24.813605 
L 501.240428 25.103628 
L 504.23879 25.350424 
L 507.237152 25.540167 
L 510.235514 25.72035 
L 513.233876 25.936338 
L 516.232238 26.190206 
L 519.2306 26.456137 
L 522.228962 26.709461 
L 525.227324 26.939984 
L 528.225686 27.152804 
L 531.224048 27.358841 
L 534.22241 27.561374 
L 537.220772 27.759922 
L 540.219134 27.968456 
L 543.217496 28.210585 
L 546.215858 28.485897 
L 549.21422 28.756188 
L 552.212582 28.982513 
L 555.210944 29.16987 
L 558.209306 29.35863 
L 561.207668 29.579878 
L 564.20603 29.832729 
L 567.204392 30.095576 
L 570.202754 30.346812 
L 573.201116 30.577159 
L 576.199478 30.789899 
L 579.19784 30.992466 
L 582.196202 31.190662 
L 585.194564 31.393748 
L 588.192926 31.618275 
L 591.191288 31.87436 
L 594.18965 32.146628 
L 597.188012 32.399962 
L 600.186374 32.61283 
L 603.184736 32.799891 
L 606.183098 32.995607 
L 609.18146 33.222101 
L 612.179822 33.475913 
L 615.178184 33.737327 
L 618.176546 33.986749 
L 621.174908 34.215191 
" clip-path="url(#p77748f3c46)" style="fill: none; stroke: #2ca02c; stroke-width: 1.6; stroke-linecap: square"/>
   </g>
   <g id="patch_7">
    <path d="M 372.460781 206.277656 
L 372.460781 7.2 
" style="fill: none; stroke: #000000; stroke-width: 0.8; stroke-linejoin: miter; stroke-linecap: square"/>
   </g>
   <g id="patch_8">
    <path d="M 372.460781 206.277656 
L 633.018437 206.277656 
" style="fill: none; stroke: #000000; stroke-width: 0.8; stroke-linejoin: miter; stroke-linecap: square"/>
   </g>
  </g>
 </g>
 <defs>
  <clipPath id="pd961f47475">
   <rect x="51.700781" y="7.2" width="260.557656" height="199.077656"/>
  </clipPath>
  <clipPath id="p77748f3c46">
   <rect x="372.460781" y="7.2" width="260.557656" height="199.077656"/>
  </clipPath>
 </defs>
</svg>
